<?xml version="1.0" standalone="no"?>
<!DOCTYPE svg PUBLIC "-//W3C//DTD SVG 20010904//EN"
 "http://www.w3.org/TR/2001/REC-SVG-20010904/DTD/svg10.dtd">
<svg version="1.0" xmlns="http://www.w3.org/2000/svg"
 width="512.000000pt" height="512.000000pt" viewBox="0 0 512.000000 512.000000"
 preserveAspectRatio="xMidYMid meet">
<metadata>
Created by potrace 1.14, written by Peter Selinger 2001-2017
</metadata>
<g transform="translate(0.000000,512.000000) scale(0.100000,-0.100000)"
fill="#000000" stroke="none">
<path d="M3435 5109 c-27 -4 -75 -10 -105 -14 -71 -9 -270 -66 -368 -106 -428
-171 -814 -526 -1022 -939 -96 -191 -147 -360 -194 -635 -14 -82 -28 -161 -31
-175 -2 -14 -23 -128 -45 -255 -22 -126 -42 -241 -45 -255 -27 -156 -38 -217
-40 -230 -1 -8 -5 -31 -8 -50 -24 -129 -58 -321 -63 -350 -4 -30 -28 -165 -39
-222 -3 -13 5 -19 31 -24 52 -10 45 -39 -25 -108 l-59 -58 -62 62 -63 62 -643
-643 -644 -644 0 -81 0 -80 182 -182 181 -182 81 0 81 0 644 644 644 644 -67
66 -67 66 58 60 c37 39 65 60 80 60 13 0 23 -6 24 -12 1 -20 7 -50 11 -53 2
-2 50 5 108 15 58 10 119 21 135 24 126 21 214 37 235 41 25 5 42 8 140 25 72
12 109 19 140 25 43 8 253 44 290 50 19 3 42 8 50 10 8 3 31 7 50 10 19 2 49
7 65 10 17 3 44 7 60 10 17 3 40 7 51 9 12 2 39 7 60 10 22 3 50 8 64 11 59
12 77 16 110 21 109 18 247 47 316 68 383 116 708 338 968 661 443 550 541
1290 247 1860 -202 393 -571 666 -1026 757 -107 22 -394 32 -490 17z m454
-513 l54 -12 -39 -42 c-21 -23 -43 -42 -49 -42 -6 0 -37 27 -70 61 l-60 61 55
-7 c30 -3 79 -12 109 -19z m-545 -78 c-52 -51 -98 -94 -102 -96 -4 -1 -31 22
-60 51 l-53 54 43 16 c82 30 202 62 250 66 9 0 -26 -41 -78 -91z m323 -50 c40
-40 73 -77 73 -82 0 -5 -52 -61 -116 -124 l-116 -116 -80 81 -79 81 113 115
c62 64 117 116 123 116 5 1 42 -32 82 -71z m532 -9 l93 -61 -86 -87 -86 -86
-80 80 -80 80 67 67 c37 38 70 68 73 68 4 0 48 -28 99 -61z m-1069 -150 c0 -4
-53 -59 -117 -123 l-117 -116 -93 92 c-89 88 -92 93 -75 111 23 26 149 120
208 155 l49 30 73 -71 c39 -40 72 -74 72 -78z m1329 -110 c34 -50 61 -94 61
-99 0 -4 -30 -38 -67 -74 l-67 -67 -80 80 -80 81 84 85 c47 46 86 85 87 85 1
0 29 -41 62 -91z m-564 -199 l-120 -120 -80 80 -80 80 120 120 120 120 80 -80
80 -80 -120 -120z m-607 -74 c-64 -64 -119 -116 -123 -116 -11 0 -155 142
-155 152 0 5 52 61 116 124 l116 116 81 -80 80 -80 -115 -116z m-516 20 c-23
-26 -187 -190 -207 -206 -13 -11 -25 -3 -85 56 -39 38 -70 73 -70 78 0 19 80
143 136 210 l56 68 94 -93 c90 -90 93 -94 76 -113z m1431 -14 l78 -78 -104
-104 c-150 -152 -126 -146 -213 -59 -41 40 -74 78 -74 83 0 10 221 236 230
236 3 0 40 -35 83 -78z m393 -33 c11 -52 24 -135 24 -154 0 -15 -14 -6 -60 40
-33 33 -60 63 -60 66 0 14 75 85 83 79 4 -4 10 -17 13 -31z m-1003 -47 l77
-77 -120 -120 -119 -119 -81 79 -80 80 117 117 c65 65 120 118 123 118 3 0 40
-35 83 -78z m-590 -212 c-32 -31 -86 -84 -121 -119 l-63 -63 -80 79 -81 80
118 120 119 120 83 -81 82 -81 -57 -55z m1537 -54 c0 -5 -52 -61 -116 -124
l-115 -115 -81 80 -80 80 119 120 118 120 78 -76 c42 -41 77 -80 77 -85z
m-2100 34 c0 -11 -182 -191 -187 -186 -7 7 14 93 49 205 l30 94 54 -54 c30
-29 54 -56 54 -59z m1490 -111 c0 -4 -53 -59 -117 -123 l-117 -117 -80 80 -80
80 119 120 120 120 78 -77 c42 -42 77 -79 77 -83z m-725 -199 l-119 -119 -80
80 -80 80 119 119 120 120 80 -80 80 -80 -120 -120z m-608 -74 c-63 -64 -119
-116 -123 -116 -10 0 -154 143 -154 153 0 4 52 60 117 123 l116 116 80 -81 81
-80 -117 -115z m2006 142 c-17 -77 -60 -219 -71 -235 -6 -9 -24 3 -62 42 l-54
55 99 100 c55 55 100 100 101 100 1 0 -5 -28 -13 -62z m-479 -57 l79 -80 -115
-115 c-64 -64 -120 -116 -125 -116 -12 0 -158 148 -152 155 14 18 225 234 229
234 3 1 41 -35 84 -78z m-611 -79 l78 -78 -104 -105 c-57 -57 -111 -110 -121
-118 -15 -12 -25 -5 -96 65 l-79 78 117 118 c64 65 119 118 122 118 3 0 40
-35 83 -78z m-610 -80 l77 -77 -120 -120 -120 -119 -80 79 -80 80 117 117 c65
65 120 118 123 118 3 0 40 -35 83 -78z m-576 -198 c-23 -24 -45 -40 -49 -36
-8 9 -38 152 -38 184 0 19 10 13 64 -41 l64 -64 -41 -43z m2059 95 l72 -72
-20 -36 c-28 -51 -106 -159 -147 -204 l-34 -38 -93 93 -94 93 117 117 c65 65
120 118 123 118 2 0 37 -32 76 -71z m-647 -282 l-120 -120 -80 81 -80 80 118
120 118 120 82 -81 81 -80 -119 -120z m-499 41 c0 -4 -53 -59 -117 -123 l-117
-116 -79 80 -80 80 119 121 118 120 78 -77 c43 -43 78 -81 78 -85z m-689 -162
l-84 -85 -30 37 c-16 20 -44 64 -64 96 l-34 59 68 69 68 68 80 -80 80 -80 -84
-84z m1599 -56 c-1 -9 -110 -92 -192 -147 l-82 -53 -75 75 -75 76 119 119 120
120 92 -92 c51 -51 93 -95 93 -98z m-753 -164 c-63 -64 -120 -116 -124 -116
-10 0 -153 144 -153 154 0 3 52 58 116 122 l117 116 80 -80 81 -81 -117 -115z
m-574 116 l77 -77 -44 -45 c-23 -25 -54 -55 -68 -68 l-25 -23 -59 35 c-33 19
-75 48 -94 64 l-35 30 80 81 c44 44 82 81 85 81 3 0 40 -35 83 -78z m856 -166
l53 -53 -34 -12 c-88 -32 -118 -41 -178 -55 -36 -9 -72 -16 -80 -16 -8 0 28
43 80 95 52 52 97 95 100 95 3 0 30 -24 59 -54z m-604 -86 c51 -51 56 -60 37
-60 -25 0 -173 29 -184 36 -9 6 62 82 77 83 6 1 37 -26 70 -59z m-911 -123
c28 -29 71 -69 95 -89 49 -41 50 -40 -49 -58 -36 -7 -76 -14 -90 -17 -48 -9
-125 -21 -126 -19 -2 1 43 250 51 285 6 24 7 24 37 -13 17 -20 53 -60 82 -89z"/>
</g>
</svg>
